<?xml version="1.0" encoding="UTF-8"?>
<svg version="1.1" xmlns="http://www.w3.org/2000/svg" width="512" height="512">
<path d="M0 0 C5.61 0 11.22 0 17 0 C17.4125 1.4025 17.825 2.805 18.25 4.25 C19.55893162 8.09234765 20.53485349 10.65868479 24 13 C30.18114735 14.90579994 35.79854927 15.28050444 42.23828125 15.2734375 C44.21289627 15.29372857 46.18750561 15.3145794 48.16210938 15.3359375 C51.23597041 15.35847637 54.30960516 15.37499448 57.38354492 15.38085938 C85.37768908 15.47066335 85.37768908 15.47066335 96 26 C104.22951411 36.20899634 105.1248551 46.32452289 104 59 C101.75707454 70.36236493 94.91663819 78.12543099 85.625 84.58984375 C79.89176317 87.66975223 74.16578825 88.29698492 67.7578125 88.34375 C66.60610062 88.3656842 66.60610062 88.3656842 65.43112183 88.38806152 C62.99579999 88.43419125 60.56055322 88.46858286 58.125 88.5 C40.36762985 87.98434596 40.36762985 87.98434596 24.7890625 95.15234375 C18.38482116 101.76633098 17.58706843 109.03928356 16.8671875 117.87109375 C16.78138428 118.84590698 16.69558105 119.82072021 16.60717773 120.82507324 C16.39772542 123.21619842 16.19554704 125.6077043 16 128 C17.60048549 127.99446924 17.60048549 127.99446924 19.23330402 127.98882675 C45.21574081 127.89996198 71.19815786 127.83426538 97.18071461 127.79275131 C109.74577555 127.77214094 122.31073599 127.74404935 134.87573242 127.69824219 C145.82953529 127.65832791 156.78326536 127.63255611 167.73713893 127.62364602 C173.53519148 127.6184391 179.3330358 127.6062324 185.1310215 127.57707977 C190.59339615 127.54983832 196.05547768 127.54157271 201.51791382 127.54756927 C203.51771833 127.54647295 205.5175331 127.53857139 207.51727867 127.5231781 C222.20061119 127.41573867 233.86081585 128.36618526 245 139 C255.72537313 150.23509384 256.59219105 162.35117982 256.51757812 177.1484375 C256.52300702 178.96470702 256.53013396 180.78097213 256.53881836 182.597229 C256.5569634 187.50222951 256.55002079 192.40689129 256.53730202 197.31189728 C256.52712846 202.4610328 256.53657974 207.6101406 256.54284668 212.75927734 C256.55011044 221.40402396 256.5405688 230.04863359 256.52148438 238.69335938 C256.49971813 248.66764747 256.5067704 258.64160842 256.52879 268.6158886 C256.54698028 277.20137761 256.5494846 285.78676852 256.53903532 294.37227058 C256.53282032 299.49048342 256.53190968 304.60854282 256.54518127 309.72674561 C256.55679207 314.54010982 256.54861903 319.35305495 256.52560425 324.16637421 C256.52034498 325.92589372 256.52178287 327.68544891 256.53065491 329.44495392 C256.59440735 343.38012589 254.9846749 354.54080589 245 365 C233.88447102 375.61123277 221.92493256 376.59031276 207.27490234 376.50793457 C205.48307985 376.51254878 203.69126115 376.51890519 201.8994503 376.52684355 C196.99715293 376.54348847 192.09516841 376.53531252 187.19287014 376.52289867 C181.89762222 376.51383069 176.60242726 376.52782659 171.30718994 376.53881836 C160.94230417 376.55658947 150.57753438 376.55276984 140.2126441 376.5411678 C131.78764743 376.53212823 123.36268323 376.53091175 114.93768311 376.53526306 C113.73784267 376.53587599 112.53800223 376.53648893 111.30180299 376.53712043 C108.8642249 376.53839935 106.42664682 376.53969621 103.98906875 376.5410108 C81.14071809 376.55241248 58.29243168 376.53930933 35.44409156 376.51780933 C15.84615908 376.49993874 -3.75167861 376.50304297 -23.34960938 376.52148438 C-46.11712135 376.54289834 -68.88457706 376.55131388 -91.6520977 376.53903532 C-94.08062616 376.53776115 -96.50915463 376.53650366 -98.93768311 376.53526306 C-100.72992984 376.53433741 -100.72992984 376.53433741 -102.55838358 376.53339306 C-110.97165506 376.52994174 -119.3848908 376.5357638 -127.79815674 376.54518127 C-138.05342311 376.55640845 -148.30856704 376.55334599 -158.56381941 376.5320583 C-163.79456539 376.52155767 -169.02510735 376.51740936 -174.25585175 376.53065491 C-179.04749281 376.54260488 -183.83874138 376.53597323 -188.63034701 376.5147447 C-190.3603466 376.51028969 -192.09037959 376.51252006 -193.82035756 376.52224785 C-207.61494861 376.5938441 -218.65590325 374.87479936 -229 365 C-239.72537313 353.76490616 -240.59219105 341.64882018 -240.51757812 326.8515625 C-240.52300702 325.03529298 -240.53013396 323.21902787 -240.53881836 321.402771 C-240.5569634 316.49777049 -240.55002079 311.59310871 -240.53730202 306.68810272 C-240.52712846 301.5389672 -240.53657974 296.3898594 -240.54284668 291.24072266 C-240.55011044 282.59597604 -240.5405688 273.95136641 -240.52148438 265.30664062 C-240.49971813 255.33235253 -240.5067704 245.35839158 -240.52879 235.3841114 C-240.54698028 226.79862239 -240.5494846 218.21323148 -240.53903532 209.62772942 C-240.53282032 204.50951658 -240.53190968 199.39145718 -240.54518127 194.27325439 C-240.55679207 189.45989018 -240.54861903 184.64694505 -240.52560425 179.83362579 C-240.52034498 178.07410628 -240.52178287 176.31455109 -240.53065491 174.55504608 C-240.59440735 160.61987411 -238.9846749 149.45919411 -229 139 C-217.01001836 127.55398728 -204.22515536 127.42535768 -188.56567383 127.54589844 C-186.50496442 127.54702816 -184.4442534 127.54639063 -182.38354492 127.54412842 C-176.8160493 127.54298521 -171.24890148 127.56643094 -165.68148637 127.59442425 C-159.85324274 127.61950347 -154.02499031 127.62178504 -148.19670105 127.62652588 C-137.17200024 127.6389365 -126.14745891 127.67173226 -115.12282819 127.71192384 C-102.56660719 127.7567011 -90.01037841 127.77864357 -77.45409739 127.79870558 C-51.63597666 127.84046654 -25.81799728 127.91078139 0 128 C-0.02094727 127.33057373 -0.04189453 126.66114746 -0.06347656 125.97143555 C-0.14769478 122.87694919 -0.19899015 119.78270507 -0.25 116.6875 C-0.28351563 115.63498047 -0.31703125 114.58246094 -0.3515625 113.49804688 C-0.48748857 102.45405346 2.45081643 93.18525668 10 85 C18.89982419 76.00110541 26.57140165 71.92658412 39.203125 71.75390625 C40.83984885 71.72095534 42.47656747 71.68774391 44.11328125 71.65429688 C46.67818473 71.60703448 49.24306894 71.5626065 51.80810547 71.52319336 C54.29416888 71.48315743 56.77980378 71.43168327 59.265625 71.37890625 C60.02111633 71.3704921 60.77660767 71.36207794 61.55499268 71.35340881 C69.2527894 71.17725725 75.80634684 70.08237026 81.5234375 64.61328125 C86.39580152 59.28977242 86.53391949 54.03136374 86.34375 47.06640625 C85.88649453 42.9874796 84.9058307 40.9058307 82 38 C74.8166672 32.52359776 66.71357565 32.86456395 58.04296875 32.82421875 C56.10610892 32.8010209 54.16925992 32.77690358 52.23242188 32.75195312 C49.21110745 32.7169099 46.19019383 32.68751198 43.16870117 32.67407227 C40.23047679 32.65848296 37.29338805 32.61821442 34.35546875 32.57421875 C33.4665947 32.57612717 32.57772064 32.57803558 31.66191101 32.58000183 C21.94715324 32.39318725 14.00724679 29.03505988 6.984375 22.3359375 C2.39715421 16.93602011 -0.2677209 10.9323762 -0.3125 3.8125 C-0.1578125 1.9253125 -0.1578125 1.9253125 0 0 Z M-192 176 C-192 178.64 -192 181.28 -192 184 C-189.36 184 -186.72 184 -184 184 C-184 181.36 -184 178.72 -184 176 C-186.64 176 -189.28 176 -192 176 Z M-144 176 C-144 178.64 -144 181.28 -144 184 C-141.36 184 -138.72 184 -136 184 C-136 181.36 -136 178.72 -136 176 C-138.64 176 -141.28 176 -144 176 Z M-96 176 C-96 178.64 -96 181.28 -96 184 C-93.36 184 -90.72 184 -88 184 C-88 181.36 -88 178.72 -88 176 C-90.64 176 -93.28 176 -96 176 Z M-48 176 C-48 178.64 -48 181.28 -48 184 C-45.36 184 -42.72 184 -40 184 C-40 181.36 -40 178.72 -40 176 C-42.64 176 -45.28 176 -48 176 Z M0 176 C0 178.64 0 181.28 0 184 C2.64 184 5.28 184 8 184 C8 181.36 8 178.72 8 176 C5.36 176 2.72 176 0 176 Z M48 176 C48 178.64 48 181.28 48 184 C50.64 184 53.28 184 56 184 C56 181.36 56 178.72 56 176 C53.36 176 50.72 176 48 176 Z M96 176 C96 178.64 96 181.28 96 184 C98.64 184 101.28 184 104 184 C104 181.36 104 178.72 104 176 C101.36 176 98.72 176 96 176 Z M144 176 C144 178.64 144 181.28 144 184 C146.64 184 149.28 184 152 184 C152 181.36 152 178.72 152 176 C149.36 176 146.72 176 144 176 Z M192 176 C192 178.64 192 181.28 192 184 C197.28 184 202.56 184 208 184 C208 181.36 208 178.72 208 176 C202.72 176 197.44 176 192 176 Z M-192 224 C-192 226.64 -192 229.28 -192 232 C-189.36 232 -186.72 232 -184 232 C-184 229.36 -184 226.72 -184 224 C-186.64 224 -189.28 224 -192 224 Z M-144 224 C-144 226.64 -144 229.28 -144 232 C-141.36 232 -138.72 232 -136 232 C-136 229.36 -136 226.72 -136 224 C-138.64 224 -141.28 224 -144 224 Z M-96 224 C-96 226.64 -96 229.28 -96 232 C-93.36 232 -90.72 232 -88 232 C-88 229.36 -88 226.72 -88 224 C-90.64 224 -93.28 224 -96 224 Z M-48 224 C-48 226.64 -48 229.28 -48 232 C-45.36 232 -42.72 232 -40 232 C-40 229.36 -40 226.72 -40 224 C-42.64 224 -45.28 224 -48 224 Z M0 224 C0 226.64 0 229.28 0 232 C2.64 232 5.28 232 8 232 C8 229.36 8 226.72 8 224 C5.36 224 2.72 224 0 224 Z M48 224 C48 226.64 48 229.28 48 232 C50.64 232 53.28 232 56 232 C56 229.36 56 226.72 56 224 C53.36 224 50.72 224 48 224 Z M96 224 C96 226.64 96 229.28 96 232 C98.64 232 101.28 232 104 232 C104 229.36 104 226.72 104 224 C101.36 224 98.72 224 96 224 Z M144 224 C144 226.64 144 229.28 144 232 C146.64 232 149.28 232 152 232 C152 229.36 152 226.72 152 224 C149.36 224 146.72 224 144 224 Z M200 224 C199.98541748 225.31718018 199.97083496 226.63436035 199.95581055 227.99145508 C199.89789287 232.87259238 199.82065964 237.75326518 199.73754883 242.6340332 C199.70426872 244.74756336 199.67624647 246.86118306 199.65356445 248.97485352 C199.62007528 252.01096806 199.56776236 255.04625975 199.51171875 258.08203125 C199.50213387 259.5024749 199.50213387 259.5024749 199.49235535 260.95161438 C199.47256119 261.83230087 199.45276703 262.71298737 199.43237305 263.62036133 C199.42126999 264.39535477 199.41016693 265.17034821 199.39872742 265.96882629 C198.88658135 268.57777059 198.15056799 269.45692351 196 271 C193.96882629 271.39872742 193.96882629 271.39872742 191.62036133 271.43237305 C190.29933159 271.46206429 190.29933159 271.46206429 188.95161438 271.49235535 C188.00465195 271.49874527 187.05768951 271.50513519 186.08203125 271.51171875 C185.10965012 271.52966995 184.13726898 271.54762115 183.13542175 271.56611633 C180.02782536 271.62032467 176.92038348 271.65414898 173.8125 271.6875 C171.70635866 271.72066376 169.60023773 271.75515253 167.49414062 271.79101562 C162.32953839 271.87605731 157.16498281 271.94281841 152 272 C152 274.64 152 277.28 152 280 C170.48 280 188.96 280 208 280 C208 261.52 208 243.04 208 224 C205.36 224 202.72 224 200 224 Z M-192 272 C-192 274.64 -192 277.28 -192 280 C-176.16 280 -160.32 280 -144 280 C-144 277.36 -144 274.72 -144 272 C-159.84 272 -175.68 272 -192 272 Z M-96 272 C-96 274.64 -96 277.28 -96 280 C-93.36 280 -90.72 280 -88 280 C-88 277.36 -88 274.72 -88 272 C-90.64 272 -93.28 272 -96 272 Z M-48 272 C-48 274.64 -48 277.28 -48 280 C-45.36 280 -42.72 280 -40 280 C-40 277.36 -40 274.72 -40 272 C-42.64 272 -45.28 272 -48 272 Z M0 272 C0 274.64 0 277.28 0 280 C2.64 280 5.28 280 8 280 C8 277.36 8 274.72 8 272 C5.36 272 2.72 272 0 272 Z M48 272 C48 274.64 48 277.28 48 280 C50.64 280 53.28 280 56 280 C56 277.36 56 274.72 56 272 C53.36 272 50.72 272 48 272 Z M96 272 C96 274.64 96 277.28 96 280 C98.64 280 101.28 280 104 280 C104 277.36 104 274.72 104 272 C101.36 272 98.72 272 96 272 Z M-192 320 C-192 322.64 -192 325.28 -192 328 C-189.36 328 -186.72 328 -184 328 C-184 325.36 -184 322.72 -184 320 C-186.64 320 -189.28 320 -192 320 Z M-144 320 C-144 322.64 -144 325.28 -144 328 C-59.52 328 24.96 328 112 328 C112 325.36 112 322.72 112 320 C27.52 320 -56.96 320 -144 320 Z M152 320 C152 322.64 152 325.28 152 328 C154.64 328 157.28 328 160 328 C160 325.36 160 322.72 160 320 C157.36 320 154.72 320 152 320 Z M200 320 C200 322.64 200 325.28 200 328 C202.64 328 205.28 328 208 328 C208 325.36 208 322.72 208 320 C205.36 320 202.72 320 200 320 Z " fill="#F3B1AF" transform="translate(248,72)"/>
<path d="M0 0 C5.61 0 11.22 0 17 0 C17.4125 1.4025 17.825 2.805 18.25 4.25 C19.55893162 8.09234765 20.53485349 10.65868479 24 13 C30.18114735 14.90579994 35.79854927 15.28050444 42.23828125 15.2734375 C44.21289627 15.29372857 46.18750561 15.3145794 48.16210938 15.3359375 C51.23597041 15.35847637 54.30960516 15.37499448 57.38354492 15.38085938 C85.37768908 15.47066335 85.37768908 15.47066335 96 26 C104.22951411 36.20899634 105.1248551 46.32452289 104 59 C101.75707454 70.36236493 94.91663819 78.12543099 85.625 84.58984375 C79.89176317 87.66975223 74.16578825 88.29698492 67.7578125 88.34375 C66.60610062 88.3656842 66.60610062 88.3656842 65.43112183 88.38806152 C62.99579999 88.43419125 60.56055322 88.46858286 58.125 88.5 C40.36762985 87.98434596 40.36762985 87.98434596 24.7890625 95.15234375 C18.38482116 101.76633098 17.58706843 109.03928356 16.8671875 117.87109375 C16.78138428 118.84590698 16.69558105 119.82072021 16.60717773 120.82507324 C16.39772542 123.21619842 16.19554704 125.6077043 16 128 C17.60048549 127.99446924 17.60048549 127.99446924 19.23330402 127.98882675 C45.21574081 127.89996198 71.19815786 127.83426538 97.18071461 127.79275131 C109.74577555 127.77214094 122.31073599 127.74404935 134.87573242 127.69824219 C145.82953529 127.65832791 156.78326536 127.63255611 167.73713893 127.62364602 C173.53519148 127.6184391 179.3330358 127.6062324 185.1310215 127.57707977 C190.59339615 127.54983832 196.05547768 127.54157271 201.51791382 127.54756927 C203.51771833 127.54647295 205.5175331 127.53857139 207.51727867 127.5231781 C222.20061119 127.41573867 233.86081585 128.36618526 245 139 C255.72537313 150.23509384 256.59219105 162.35117982 256.51757812 177.1484375 C256.52300702 178.96470702 256.53013396 180.78097213 256.53881836 182.597229 C256.5569634 187.50222951 256.55002079 192.40689129 256.53730202 197.31189728 C256.52712846 202.4610328 256.53657974 207.6101406 256.54284668 212.75927734 C256.55011044 221.40402396 256.5405688 230.04863359 256.52148438 238.69335938 C256.49971813 248.66764747 256.5067704 258.64160842 256.52879 268.6158886 C256.54698028 277.20137761 256.5494846 285.78676852 256.53903532 294.37227058 C256.53282032 299.49048342 256.53190968 304.60854282 256.54518127 309.72674561 C256.55679207 314.54010982 256.54861903 319.35305495 256.52560425 324.16637421 C256.52034498 325.92589372 256.52178287 327.68544891 256.53065491 329.44495392 C256.59440735 343.38012589 254.9846749 354.54080589 245 365 C233.88447102 375.61123277 221.92493256 376.59031276 207.27490234 376.50793457 C205.48307985 376.51254878 203.69126115 376.51890519 201.8994503 376.52684355 C196.99715293 376.54348847 192.09516841 376.53531252 187.19287014 376.52289867 C181.89762222 376.51383069 176.60242726 376.52782659 171.30718994 376.53881836 C160.94230417 376.55658947 150.57753438 376.55276984 140.2126441 376.5411678 C131.78764743 376.53212823 123.36268323 376.53091175 114.93768311 376.53526306 C113.73784267 376.53587599 112.53800223 376.53648893 111.30180299 376.53712043 C108.8642249 376.53839935 106.42664682 376.53969621 103.98906875 376.5410108 C81.14071809 376.55241248 58.29243168 376.53930933 35.44409156 376.51780933 C15.84615908 376.49993874 -3.75167861 376.50304297 -23.34960938 376.52148438 C-46.11712135 376.54289834 -68.88457706 376.55131388 -91.6520977 376.53903532 C-94.08062616 376.53776115 -96.50915463 376.53650366 -98.93768311 376.53526306 C-100.72992984 376.53433741 -100.72992984 376.53433741 -102.55838358 376.53339306 C-110.97165506 376.52994174 -119.3848908 376.5357638 -127.79815674 376.54518127 C-138.05342311 376.55640845 -148.30856704 376.55334599 -158.56381941 376.5320583 C-163.79456539 376.52155767 -169.02510735 376.51740936 -174.25585175 376.53065491 C-179.04749281 376.54260488 -183.83874138 376.53597323 -188.63034701 376.5147447 C-190.3603466 376.51028969 -192.09037959 376.51252006 -193.82035756 376.52224785 C-207.61494861 376.5938441 -218.65590325 374.87479936 -229 365 C-239.72537313 353.76490616 -240.59219105 341.64882018 -240.51757812 326.8515625 C-240.52300702 325.03529298 -240.53013396 323.21902787 -240.53881836 321.402771 C-240.5569634 316.49777049 -240.55002079 311.59310871 -240.53730202 306.68810272 C-240.52712846 301.5389672 -240.53657974 296.3898594 -240.54284668 291.24072266 C-240.55011044 282.59597604 -240.5405688 273.95136641 -240.52148438 265.30664062 C-240.49971813 255.33235253 -240.5067704 245.35839158 -240.52879 235.3841114 C-240.54698028 226.79862239 -240.5494846 218.21323148 -240.53903532 209.62772942 C-240.53282032 204.50951658 -240.53190968 199.39145718 -240.54518127 194.27325439 C-240.55679207 189.45989018 -240.54861903 184.64694505 -240.52560425 179.83362579 C-240.52034498 178.07410628 -240.52178287 176.31455109 -240.53065491 174.55504608 C-240.59440735 160.61987411 -238.9846749 149.45919411 -229 139 C-217.01001836 127.55398728 -204.22515536 127.42535768 -188.56567383 127.54589844 C-186.50496442 127.54702816 -184.4442534 127.54639063 -182.38354492 127.54412842 C-176.8160493 127.54298521 -171.24890148 127.56643094 -165.68148637 127.59442425 C-159.85324274 127.61950347 -154.02499031 127.62178504 -148.19670105 127.62652588 C-137.17200024 127.6389365 -126.14745891 127.67173226 -115.12282819 127.71192384 C-102.56660719 127.7567011 -90.01037841 127.77864357 -77.45409739 127.79870558 C-51.63597666 127.84046654 -25.81799728 127.91078139 0 128 C-0.02094727 127.33057373 -0.04189453 126.66114746 -0.06347656 125.97143555 C-0.14769478 122.87694919 -0.19899015 119.78270507 -0.25 116.6875 C-0.28351563 115.63498047 -0.31703125 114.58246094 -0.3515625 113.49804688 C-0.48748857 102.45405346 2.45081643 93.18525668 10 85 C18.89982419 76.00110541 26.57140165 71.92658412 39.203125 71.75390625 C40.83984885 71.72095534 42.47656747 71.68774391 44.11328125 71.65429688 C46.67818473 71.60703448 49.24306894 71.5626065 51.80810547 71.52319336 C54.29416888 71.48315743 56.77980378 71.43168327 59.265625 71.37890625 C60.02111633 71.3704921 60.77660767 71.36207794 61.55499268 71.35340881 C69.2527894 71.17725725 75.80634684 70.08237026 81.5234375 64.61328125 C86.39580152 59.28977242 86.53391949 54.03136374 86.34375 47.06640625 C85.88649453 42.9874796 84.9058307 40.9058307 82 38 C74.8166672 32.52359776 66.71357565 32.86456395 58.04296875 32.82421875 C56.10610892 32.8010209 54.16925992 32.77690358 52.23242188 32.75195312 C49.21110745 32.7169099 46.19019383 32.68751198 43.16870117 32.67407227 C40.23047679 32.65848296 37.29338805 32.61821442 34.35546875 32.57421875 C33.4665947 32.57612717 32.57772064 32.57803558 31.66191101 32.58000183 C21.94715324 32.39318725 14.00724679 29.03505988 6.984375 22.3359375 C2.39715421 16.93602011 -0.2677209 10.9323762 -0.3125 3.8125 C-0.1578125 1.9253125 -0.1578125 1.9253125 0 0 Z M-218.375 152.4375 C-219.02210938 153.17871094 -219.66921875 153.91992188 -220.3359375 154.68359375 C-223.77626633 159.47259608 -224.25240287 163.49286098 -224.26742554 169.33624268 C-224.27195665 170.06512058 -224.27648776 170.79399848 -224.28115618 171.5449636 C-224.29379504 173.98218901 -224.29218015 176.4191908 -224.29052734 178.85644531 C-224.296513 180.60610745 -224.30331863 182.35576695 -224.31088257 184.10542297 C-224.32854796 188.85559382 -224.33323823 193.60569261 -224.33451414 198.35589314 C-224.33593622 201.32544261 -224.34020693 204.2949738 -224.34550858 207.26451874 C-224.36401201 217.62964541 -224.37217896 227.99472064 -224.37060547 238.35986328 C-224.36940461 248.01253868 -224.3904952 257.66499029 -224.4220928 267.31760907 C-224.4482728 275.61163547 -224.45897201 283.90558886 -224.45769465 292.19965625 C-224.45718544 297.15024606 -224.46284573 302.10063705 -224.48405075 307.05118561 C-224.50346166 311.71012817 -224.50353811 316.36868288 -224.48901749 321.02763939 C-224.48693169 322.73317979 -224.49161659 324.43874464 -224.5037384 326.14424324 C-224.56969475 336.07069692 -224.56593088 344.64993788 -217.81640625 352.55859375 C-217.07261719 353.17863281 -216.32882813 353.79867187 -215.5625 354.4375 C-214.82128906 355.07558594 -214.08007812 355.71367187 -213.31640625 356.37109375 C-208.53049389 359.73656669 -204.55945514 360.25056836 -198.75410748 360.25447559 C-198.03148784 360.25768207 -197.3088682 360.26088855 -196.56435099 360.26419219 C-194.13613793 360.27251212 -191.70817023 360.26656097 -189.279953 360.26069641 C-187.52417266 360.26371619 -185.76839363 360.2676048 -184.01261693 360.27228898 C-179.18226557 360.2826002 -174.35198816 360.28037921 -169.52163064 360.27610838 C-164.31428303 360.2736468 -159.10695348 360.2826483 -153.89961243 360.29014587 C-143.69536467 360.30291105 -133.4911432 360.30468427 -123.2868888 360.30234561 C-114.99378523 360.3005642 -106.70068966 360.3023083 -98.40758705 360.30657005 C-97.2282704 360.30716524 -96.04895374 360.30776043 -94.83390022 360.30837366 C-92.43827173 360.30958538 -90.04264325 360.31079952 -87.64701477 360.31201603 C-65.16791693 360.32289874 -42.68883407 360.32072572 -20.20973537 360.31463119 C0.36104832 360.30946229 20.93178466 360.32071547 41.50255898 360.33972941 C62.61591209 360.35909548 83.72924277 360.36736591 104.84260482 360.36360615 C116.6995933 360.36169212 128.55654147 360.36420124 140.41352272 360.37832069 C150.5083319 360.39021984 160.60307597 360.39165591 170.69788603 360.37953053 C175.84920701 360.37363134 181.00040882 360.37257112 186.15172195 360.38453293 C190.86751198 360.3953562 195.58308281 360.39233078 200.29886242 360.37827124 C202.00476584 360.37561448 203.71068623 360.37802147 205.41657303 360.38600711 C207.73684071 360.39611475 210.0563467 360.38769037 212.37658405 360.37473011 C214.30909219 360.37481263 214.30909219 360.37481263 216.2806409 360.37489682 C222.25061896 359.77314643 227.66123711 357.86606689 232.25 353.875 C232.87390625 353.35679687 233.4978125 352.83859375 234.140625 352.3046875 C241.07996146 343.70340912 240.57226554 334.17478868 240.51757812 323.67358398 C240.52300477 321.92170634 240.53013047 320.16983326 240.53881836 318.41796875 C240.55698883 313.68039759 240.55001057 308.94317649 240.53730202 304.20559955 C240.52714334 299.23789225 240.53657549 294.27021402 240.54284668 289.30250549 C240.55011407 280.96276492 240.54055854 272.62316627 240.52148438 264.28344727 C240.49971026 254.65223177 240.5067746 245.02135494 240.52879 235.39014763 C240.54696138 227.10792697 240.54949403 218.82580807 240.53903532 210.54357392 C240.53281087 205.60260059 240.53193603 200.66178629 240.54518127 195.72082329 C240.55676472 191.07574792 240.54866859 186.43110791 240.52560425 181.78607941 C240.52033077 180.08496637 240.52180757 178.38381648 240.53065491 176.68271828 C240.57648859 166.97246946 240.36880883 159.87708808 234.359375 151.79296875 C233.82828125 151.26316406 233.2971875 150.73335937 232.75 150.1875 C232.22921875 149.64480469 231.7084375 149.10210937 231.171875 148.54296875 C225.66068479 144.62764477 220.00111861 143.62497495 213.36934662 143.61968327 C212.2776923 143.61269339 212.2776923 143.61269339 211.16398436 143.6055623 C208.73621153 143.5936539 206.30900265 143.60299134 203.88122559 143.61231995 C202.11872948 143.60814522 200.35623606 143.60266693 198.59374762 143.59600013 C193.75874163 143.58154533 188.92390611 143.58579037 184.08889079 143.59316695 C178.87136277 143.59789615 173.65387176 143.58539102 168.43635559 143.57514954 C158.21847166 143.55795198 148.00064919 143.55712344 137.78275454 143.56236244 C129.47875445 143.56640321 121.17477254 143.56496169 112.87077332 143.55961418 C111.68908777 143.55886576 110.50740222 143.55811734 109.28990802 143.55734624 C106.88936714 143.55581477 104.48882626 143.55427642 102.08828539 143.55273127 C79.57626153 143.53900303 57.06427243 143.54444644 34.55224937 143.55591648 C13.9525414 143.56585152 -6.64707679 143.55290405 -27.24677092 143.52898229 C-48.39638426 143.50460683 -69.54595576 143.49497945 -90.69558287 143.50163502 C-102.57042267 143.50513039 -114.44519339 143.50287405 -126.32002258 143.48538399 C-136.42758689 143.47068155 -146.53503346 143.47000107 -156.64259541 143.4874549 C-161.80004449 143.49598294 -166.95728305 143.49807033 -172.1147213 143.48280334 C-176.83600457 143.46900035 -181.5568961 143.47366282 -186.27815646 143.49304258 C-187.98598799 143.49681636 -189.69385057 143.49384109 -191.40165454 143.48343093 C-202.2424858 143.42204847 -210.80129805 143.51907955 -218.375 152.4375 Z " fill="#B3404A" transform="translate(248,72)"/>
<path d="M0 0 C1.1318883 -0.00638882 2.2637766 -0.01277764 3.42996454 -0.01936007 C7.23113282 -0.03464739 11.03126511 -0.0141223 14.83239746 0.00622559 C17.55406729 0.00548942 20.27570289 -0.0027349 22.99736023 -0.0105896 C29.62728143 -0.02511944 36.25689652 -0.01287905 42.88678873 0.00852364 C50.60651397 0.03253014 58.32616901 0.03081949 66.04592329 0.02821773 C79.81937542 0.02452708 93.59268328 0.04535711 107.36608887 0.07946777 C120.73298794 0.11255944 134.09973559 0.12672612 147.4666748 0.1204834 C162.02019496 0.11371994 176.57365167 0.11617833 191.12716246 0.1358428 C191.89669472 0.13688229 192.66622698 0.13792177 193.4590784 0.13899276 C195.00466837 0.14108366 196.55025832 0.14319464 198.09584823 0.14532593 C203.47766658 0.15222267 208.85946539 0.15289065 214.24128723 0.15144348 C220.79940402 0.15000402 227.3573973 0.15969 233.9154731 0.18338984 C237.26195974 0.19525318 240.60812892 0.20077178 243.9546566 0.19655228 C247.58089078 0.19285153 251.20659099 0.20753702 254.83276367 0.22705078 C255.89258154 0.22172286 256.95239942 0.21639493 258.04433298 0.21090555 C267.02948544 0.2946446 267.02948544 0.2946446 270.91638184 3.62145996 C273.01452601 7.8177483 272.14326711 13.27180845 272.15661621 17.88781738 C272.16629607 19.91598935 272.19730716 21.94313638 272.22888184 23.97106934 C272.23403809 25.25433105 272.23919434 26.53759277 272.24450684 27.85974121 C272.25385254 29.03576904 272.26319824 30.21179688 272.27282715 31.42346191 C271.87871123 34.95943755 271.09273794 36.82770465 268.91638184 39.62145996 C266.03307356 40.58256272 264.22733251 40.74843367 261.23239994 40.75288773 C259.77978955 40.75864944 259.77978955 40.75864944 258.2978335 40.76452756 C256.69834499 40.76322784 256.69834499 40.76322784 255.06654358 40.76190186 C253.37021606 40.76635854 253.37021606 40.76635854 251.63961929 40.77090526 C247.83025476 40.77961341 244.02092157 40.78110228 240.21154785 40.78259277 C237.48856419 40.78668046 234.76558384 40.79222301 232.04260254 40.79763794 C224.63159258 40.81122381 217.22058803 40.81724611 209.80956769 40.8216486 C205.18407339 40.82441005 200.55858119 40.82864718 195.9330883 40.83315277 C183.13149045 40.84534476 170.32989428 40.85564487 157.52829075 40.85902786 C156.70887404 40.85924743 155.88945734 40.85946699 155.04520982 40.85969321 C154.22381537 40.85991149 153.40242091 40.86012977 152.55613571 40.86035466 C150.89163117 40.86079813 149.22712662 40.86124469 147.56262207 40.86169434 C146.73696752 40.86191577 145.91131298 40.8621372 145.0606386 40.86236534 C131.67456343 40.86631548 118.28854263 40.8837764 104.90248848 40.90705386 C91.16594127 40.93074847 77.42942137 40.94322881 63.69285339 40.94439578 C55.97749778 40.9453135 48.26221304 40.95109027 40.54687691 40.96921539 C33.9788304 40.98459076 27.41087666 40.989752 20.84281559 40.98147729 C17.4903708 40.97756185 14.13826547 40.98016471 10.7858181 40.99253464 C7.1547835 41.00515042 3.52423418 40.99943373 -0.10679626 40.98895264 C-1.17089122 40.99700904 -2.23498617 41.00506545 -3.33132643 41.01336598 C-4.3023411 41.00677614 -5.27335577 41.0001863 -6.27379513 40.99339676 C-7.11211028 40.99399385 -7.95042543 40.99459094 -8.81414407 40.99520612 C-11.64792697 40.52852731 -13.00817756 39.58189333 -15.08361816 37.62145996 C-16.74046883 32.65090795 -16.38700205 27.48635449 -16.43371582 22.27966309 C-16.45027567 20.92759997 -16.47756741 19.57562442 -16.51574707 18.22399902 C-16.57069688 16.26587457 -16.58928416 14.30683716 -16.60705566 12.34802246 C-16.626875 11.17835938 -16.64669434 10.00869629 -16.66711426 8.80358887 C-14.97590796 -0.41950021 -7.70125925 -0.09096204 0 0 Z M-0.08361816 16.62145996 C-0.08361816 19.26145996 -0.08361816 21.90145996 -0.08361816 24.62145996 C84.39638184 24.62145996 168.87638184 24.62145996 255.91638184 24.62145996 C255.91638184 21.98145996 255.91638184 19.34145996 255.91638184 16.62145996 C171.43638184 16.62145996 86.95638184 16.62145996 -0.08361816 16.62145996 Z " fill="#B3404A" transform="translate(104.0836181640625,375.3785400390625)"/>
<path d="M0 0 C1.26972656 0.00257813 2.53945313 0.00515625 3.84765625 0.0078125 C5.16636719 0.03617187 6.48507812 0.06453125 7.84375 0.09375 C9.16246094 0.09117187 10.48117187 0.08859375 11.83984375 0.0859375 C22.77449158 0.19694915 22.77449158 0.19694915 27.34375 3.59375 C28.82368817 6.55362633 28.49973597 9.56403345 28.50488281 12.80981445 C28.51233017 13.92474274 28.51233017 13.92474274 28.51992798 15.06219482 C28.53456169 17.52714964 28.54135406 19.99204008 28.546875 22.45703125 C28.55262605 24.16855369 28.55838379 25.88007611 28.56414795 27.59159851 C28.57466178 31.18370871 28.58050175 34.7757965 28.58398438 38.36791992 C28.58946585 42.96809556 28.61348473 47.56797472 28.64195633 52.16805744 C28.66059302 55.70512248 28.66578889 59.24211631 28.66732025 62.7792263 C28.67034566 64.47488206 28.67837046 66.1705366 28.69150543 67.86614418 C28.70858558 70.24082502 28.70668099 72.61478438 28.70019531 74.98950195 C28.7094101 75.68839035 28.71862488 76.38727875 28.7281189 77.10734558 C28.69126705 81.42087723 28.0523353 84.19873594 25.34375 87.59375 C21.82921308 88.76526231 18.65522918 88.7490673 14.99829102 88.75488281 C14.25325317 88.75984772 13.50821533 88.76481262 12.74060059 88.76992798 C10.27627642 88.7845318 7.81201658 88.79134791 5.34765625 88.796875 C3.63516742 88.80262703 1.92267861 88.80838476 0.21018982 88.81414795 C-3.38014018 88.82465225 -6.97044781 88.83049894 -10.56079102 88.83398438 C-15.16215696 88.83947405 -19.76322773 88.86351445 -24.364501 88.89195633 C-27.90152351 88.91057375 -31.4384747 88.91578778 -34.97554207 88.91732025 C-36.67202433 88.92034833 -38.36850529 88.92838209 -40.0649395 88.94150543 C-42.43732112 88.95855076 -44.80897856 88.95668992 -47.18139648 88.95019531 C-47.88230911 88.9594101 -48.58322174 88.96862488 -49.30537415 88.9781189 C-52.33282956 88.95214203 -54.39197429 88.74044295 -57.06092834 87.25897217 C-61.19691898 82.94175923 -59.95630748 75.82940442 -60.00634766 70.25195312 C-60.02290751 68.89989001 -60.05019924 67.54791446 -60.08837891 66.19628906 C-60.14332871 64.23816461 -60.161916 62.2791272 -60.1796875 60.3203125 C-60.19950684 59.15064941 -60.21932617 57.98098633 -60.23974609 56.77587891 C-59.65625 53.59375 -59.65625 53.59375 -57.74194336 50.70385742 C-53.38066955 47.72146249 -49.92640975 47.95976787 -44.76171875 48.10546875 C-43.81436356 48.11254349 -42.86700836 48.11961823 -41.89094543 48.12690735 C-38.87439979 48.15482666 -35.8597316 48.21756085 -32.84375 48.28125 C-30.79494874 48.30633604 -28.7461183 48.32914867 -26.69726562 48.34960938 C-21.68287379 48.40464541 -16.66987986 48.49090144 -11.65625 48.59375 C-11.68243408 47.31733643 -11.70861816 46.04092285 -11.7355957 44.72583008 C-11.82620416 39.9830076 -11.88353827 35.24026138 -11.9309082 30.49682617 C-11.95602806 28.44526294 -11.99013036 26.39378899 -12.03344727 24.3425293 C-12.09421002 21.39088909 -12.12248492 18.4404335 -12.14453125 15.48828125 C-12.17033768 14.57351517 -12.1961441 13.65874908 -12.22273254 12.71626282 C-12.22465429 8.33742263 -12.07473207 6.20357129 -9.54174805 2.51245117 C-6.06750367 0.20226532 -4.1487052 -0.02542382 0 0 Z M4.34375 16.59375 C4.32916748 17.91093018 4.31458496 19.22811035 4.29956055 20.58520508 C4.24164287 25.46634238 4.16440964 30.34701518 4.08129883 35.2277832 C4.04801872 37.34131336 4.01999647 39.45493306 3.99731445 41.56860352 C3.96382528 44.60471806 3.91151236 47.64000975 3.85546875 50.67578125 C3.84588387 52.0962249 3.84588387 52.0962249 3.83610535 53.54536438 C3.81631119 54.42605087 3.79651703 55.30673737 3.77612305 56.21411133 C3.76501999 56.98910477 3.75391693 57.76409821 3.74247742 58.56257629 C3.23033135 61.17152059 2.49431799 62.05067351 0.34375 63.59375 C-1.68742371 63.99247742 -1.68742371 63.99247742 -4.03588867 64.02612305 C-5.35691841 64.05581429 -5.35691841 64.05581429 -6.70463562 64.08610535 C-7.65159805 64.09249527 -8.59856049 64.09888519 -9.57421875 64.10546875 C-10.54659988 64.12341995 -11.51898102 64.14137115 -12.52082825 64.15986633 C-15.62842464 64.21407467 -18.73586652 64.24789898 -21.84375 64.28125 C-23.94989134 64.31441376 -26.05601227 64.34890253 -28.16210938 64.38476562 C-33.32671161 64.46980731 -38.49126719 64.53656841 -43.65625 64.59375 C-43.65625 67.23375 -43.65625 69.87375 -43.65625 72.59375 C-25.17625 72.59375 -6.69625 72.59375 12.34375 72.59375 C12.34375 54.11375 12.34375 35.63375 12.34375 16.59375 C9.70375 16.59375 7.06375 16.59375 4.34375 16.59375 Z " fill="#B3404A" transform="translate(443.65625,279.40625)"/>
<path d="M0 0 C0.66569504 -0.00554901 1.33139008 -0.01109802 2.01725769 -0.01681519 C4.20691044 -0.02857861 6.39447797 -0.00437471 8.58398438 0.02148438 C10.11185614 0.02319649 11.63973084 0.02312877 13.16760254 0.0213623 C16.36543997 0.02301365 19.56257476 0.04167599 22.76025391 0.07324219 C26.85265379 0.1129199 30.94413402 0.11728643 35.03668976 0.10977936 C38.19037249 0.1067051 41.3438497 0.11884625 44.4974823 0.13591003 C46.00610565 0.14292529 47.5147523 0.14606636 49.02339172 0.1452179 C51.13450962 0.14702221 53.24453978 0.16845545 55.35546875 0.1953125 C57.15485901 0.20794128 57.15485901 0.20794128 58.99060059 0.2208252 C62.47938538 0.65256382 64.38053785 1.52169287 67.17773438 3.61523438 C69.27587855 7.81152272 68.40461965 13.26558287 68.41796875 17.8815918 C68.42764861 19.90976376 68.4586597 21.93691079 68.49023438 23.96484375 C68.49796875 25.88973633 68.49796875 25.88973633 68.50585938 27.85351562 C68.51520508 29.02954346 68.52455078 30.20557129 68.53417969 31.41723633 C68.14006377 34.95321197 67.35409048 36.82147906 65.17773438 39.61523438 C61.7763977 40.74901327 59.15369216 40.75607614 55.56665039 40.77636719 C54.89964111 40.78133209 54.23263184 40.786297 53.54541016 40.79141235 C51.34080979 40.80600722 49.13628134 40.81283076 46.93164062 40.81835938 C45.39851378 40.82411214 43.86538694 40.82986986 42.33226013 40.83563232 C39.11855738 40.84613407 35.9048796 40.85198243 32.69116211 40.85546875 C28.57405421 40.86095796 24.45727627 40.88499827 20.34027195 40.9134407 C17.17383356 40.93206534 14.00747479 40.93727254 10.84098625 40.93880463 C9.32313161 40.94183107 7.80527836 40.94985938 6.28747749 40.96298981 C4.16413352 40.98005061 2.04159765 40.97817077 -0.08178711 40.97167969 C-1.28963364 40.97532532 -2.49748016 40.97897095 -3.7419281 40.98272705 C-7.10057853 40.58203089 -8.46788703 40.00404465 -10.82226562 37.61523438 C-12.47911629 32.64468237 -12.12564951 27.48012891 -12.17236328 22.2734375 C-12.18892313 20.92137438 -12.21621487 19.56939883 -12.25439453 18.21777344 C-12.30934434 16.25964898 -12.32793162 14.30061158 -12.34570312 12.34179688 C-12.36552246 11.17213379 -12.3853418 10.0024707 -12.40576172 8.79736328 C-11.13224028 1.85214216 -6.53970585 -0.01120001 0 0 Z M4.17773438 16.61523438 C4.17773438 19.25523437 4.17773438 21.89523437 4.17773438 24.61523438 C20.01773438 24.61523438 35.85773438 24.61523438 52.17773438 24.61523438 C52.17773438 21.97523438 52.17773438 19.33523438 52.17773438 16.61523438 C36.33773437 16.61523438 20.49773437 16.61523438 4.17773438 16.61523438 Z " fill="#B3404A" transform="translate(51.822265625,327.384765625)"/>
<path d="M0 0 C0.80232056 -0.00004028 1.60464111 -0.00008057 2.43127441 -0.00012207 C4.12239443 0.00522359 5.8135146 0.02276578 7.50439453 0.05175781 C10.08573724 0.09362006 12.66446867 0.09282315 15.24609375 0.0859375 C16.89324721 0.09643096 18.54038728 0.10936992 20.1875 0.125 C21.3392572 0.12530212 21.3392572 0.12530212 22.51428223 0.12561035 C27.02599744 0.22473308 30.01087988 0.78722566 33.59375 3.59375 C35.69189417 7.79003834 34.82063527 13.24409849 34.83398438 17.86010742 C34.84366423 19.88827939 34.87467532 21.91542642 34.90625 23.94335938 C34.91398437 25.86825195 34.91398437 25.86825195 34.921875 27.83203125 C34.93589355 29.596073 34.93589355 29.596073 34.95019531 31.39575195 C34.55607939 34.93172759 33.77010611 36.79999468 31.59375 39.59375 C27.8240619 40.8503127 24.27657257 40.77550362 20.34765625 40.796875 C19.13637306 40.80542511 19.13637306 40.80542511 17.90061951 40.81414795 C16.19344388 40.82358834 14.48625011 40.83012812 12.77905273 40.83398438 C10.16943625 40.8437009 7.56060393 40.8747369 4.95117188 40.90625 C3.29167134 40.91277933 1.63216518 40.91803007 -0.02734375 40.921875 C-0.80661728 40.9342218 -1.58589081 40.9465686 -2.38877869 40.95928955 C-5.62902164 40.94598287 -7.99008795 40.81914875 -10.86743164 39.26074219 C-14.91539748 34.87560642 -13.70625213 27.83557381 -13.75634766 22.25195312 C-13.77290751 20.89989001 -13.80019924 19.54791446 -13.83837891 18.19628906 C-13.89332871 16.23816461 -13.911916 14.2791272 -13.9296875 12.3203125 C-13.94950684 11.15064941 -13.96932617 9.98098633 -13.98974609 8.77587891 C-12.54689838 0.90722742 -7.08371197 -0.15125496 0 0 Z M2.59375 16.59375 C2.59375 19.23375 2.59375 21.87375 2.59375 24.59375 C7.87375 24.59375 13.15375 24.59375 18.59375 24.59375 C18.59375 21.95375 18.59375 19.31375 18.59375 16.59375 C13.31375 16.59375 8.03375 16.59375 2.59375 16.59375 Z " fill="#B3404A" transform="translate(437.40625,231.40625)"/>
<path d="M0 0 C1.26972656 0.00257813 2.53945313 0.00515625 3.84765625 0.0078125 C5.16636719 0.03617187 6.48507812 0.06453125 7.84375 0.09375 C9.16246094 0.09117187 10.48117187 0.08859375 11.83984375 0.0859375 C22.77449158 0.19694915 22.77449158 0.19694915 27.34375 3.59375 C29.44189417 7.79003834 28.57063527 13.24409849 28.58398438 17.86010742 C28.59366423 19.88827939 28.62467532 21.91542642 28.65625 23.94335938 C28.66398437 25.86825195 28.66398437 25.86825195 28.671875 27.83203125 C28.68589355 29.596073 28.68589355 29.596073 28.70019531 31.39575195 C28.30607939 34.93172759 27.52010611 36.79999468 25.34375 39.59375 C20.35941711 41.2551943 15.16688439 40.81884154 9.94702148 40.83398438 C7.91673966 40.8436998 5.8874667 40.87474209 3.85742188 40.90625 C2.57544922 40.91140625 1.29347656 40.9165625 -0.02734375 40.921875 C-1.20224365 40.9312207 -2.37714355 40.94056641 -3.58764648 40.95019531 C-6.94642967 40.56004308 -8.29947237 39.97740837 -10.65625 37.59375 C-12.31310067 32.62319799 -11.95963389 27.45864453 -12.00634766 22.25195312 C-12.02290751 20.89989001 -12.05019924 19.54791446 -12.08837891 18.19628906 C-12.14332871 16.23816461 -12.161916 14.2791272 -12.1796875 12.3203125 C-12.19950684 11.15064941 -12.21932617 9.98098633 -12.23974609 8.77587891 C-10.96283381 1.81216565 -6.58790688 -0.04037157 0 0 Z M4.34375 16.59375 C4.34375 19.23375 4.34375 21.87375 4.34375 24.59375 C6.98375 24.59375 9.62375 24.59375 12.34375 24.59375 C12.34375 21.95375 12.34375 19.31375 12.34375 16.59375 C9.70375 16.59375 7.06375 16.59375 4.34375 16.59375 Z " fill="#B3404A" transform="translate(443.65625,375.40625)"/>
<path d="M0 0 C1.26972656 0.00257813 2.53945313 0.00515625 3.84765625 0.0078125 C5.16636719 0.03617187 6.48507812 0.06453125 7.84375 0.09375 C9.16246094 0.09117187 10.48117187 0.08859375 11.83984375 0.0859375 C22.77449158 0.19694915 22.77449158 0.19694915 27.34375 3.59375 C29.44189417 7.79003834 28.57063527 13.24409849 28.58398438 17.86010742 C28.59366423 19.88827939 28.62467532 21.91542642 28.65625 23.94335938 C28.66398437 25.86825195 28.66398437 25.86825195 28.671875 27.83203125 C28.68589355 29.596073 28.68589355 29.596073 28.70019531 31.39575195 C28.30607939 34.93172759 27.52010611 36.79999468 25.34375 39.59375 C20.35941711 41.2551943 15.16688439 40.81884154 9.94702148 40.83398438 C7.91673966 40.8436998 5.8874667 40.87474209 3.85742188 40.90625 C2.57544922 40.91140625 1.29347656 40.9165625 -0.02734375 40.921875 C-1.20224365 40.9312207 -2.37714355 40.94056641 -3.58764648 40.95019531 C-6.94642967 40.56004308 -8.29947237 39.97740837 -10.65625 37.59375 C-12.31310067 32.62319799 -11.95963389 27.45864453 -12.00634766 22.25195312 C-12.02290751 20.89989001 -12.05019924 19.54791446 -12.08837891 18.19628906 C-12.14332871 16.23816461 -12.161916 14.2791272 -12.1796875 12.3203125 C-12.19950684 11.15064941 -12.21932617 9.98098633 -12.23974609 8.77587891 C-10.96283381 1.81216565 -6.58790688 -0.04037157 0 0 Z M4.34375 16.59375 C4.34375 19.23375 4.34375 21.87375 4.34375 24.59375 C6.98375 24.59375 9.62375 24.59375 12.34375 24.59375 C12.34375 21.95375 12.34375 19.31375 12.34375 16.59375 C9.70375 16.59375 7.06375 16.59375 4.34375 16.59375 Z " fill="#B3404A" transform="translate(395.65625,375.40625)"/>
<path d="M0 0 C1.26972656 0.00257813 2.53945313 0.00515625 3.84765625 0.0078125 C5.16636719 0.03617187 6.48507813 0.06453125 7.84375 0.09375 C9.16246094 0.09117187 10.48117188 0.08859375 11.83984375 0.0859375 C22.77449158 0.19694915 22.77449158 0.19694915 27.34375 3.59375 C29.44189417 7.79003834 28.57063527 13.24409849 28.58398438 17.86010742 C28.59366423 19.88827939 28.62467532 21.91542642 28.65625 23.94335938 C28.66398437 25.86825195 28.66398437 25.86825195 28.671875 27.83203125 C28.68589355 29.596073 28.68589355 29.596073 28.70019531 31.39575195 C28.30607939 34.93172759 27.52010611 36.79999468 25.34375 39.59375 C20.35941711 41.2551943 15.16688439 40.81884154 9.94702148 40.83398438 C7.91673966 40.8436998 5.8874667 40.87474209 3.85742188 40.90625 C2.57544922 40.91140625 1.29347656 40.9165625 -0.02734375 40.921875 C-1.20224365 40.9312207 -2.37714355 40.94056641 -3.58764648 40.95019531 C-6.94642967 40.56004308 -8.29947237 39.97740837 -10.65625 37.59375 C-12.31310067 32.62319799 -11.95963389 27.45864453 -12.00634766 22.25195312 C-12.02290751 20.89989001 -12.05019924 19.54791446 -12.08837891 18.19628906 C-12.14332871 16.23816461 -12.161916 14.2791272 -12.1796875 12.3203125 C-12.19950684 11.15064941 -12.21932617 9.98098633 -12.23974609 8.77587891 C-10.96283381 1.81216565 -6.58790688 -0.04037157 0 0 Z M4.34375 16.59375 C4.34375 19.23375 4.34375 21.87375 4.34375 24.59375 C6.98375 24.59375 9.62375 24.59375 12.34375 24.59375 C12.34375 21.95375 12.34375 19.31375 12.34375 16.59375 C9.70375 16.59375 7.06375 16.59375 4.34375 16.59375 Z " fill="#B3404A" transform="translate(51.65625,375.40625)"/>
<path d="M0 0 C1.26972656 0.00257813 2.53945313 0.00515625 3.84765625 0.0078125 C5.16636719 0.03617187 6.48507812 0.06453125 7.84375 0.09375 C9.16246094 0.09117187 10.48117187 0.08859375 11.83984375 0.0859375 C22.77449158 0.19694915 22.77449158 0.19694915 27.34375 3.59375 C29.44189417 7.79003834 28.57063527 13.24409849 28.58398438 17.86010742 C28.59366423 19.88827939 28.62467532 21.91542642 28.65625 23.94335938 C28.66398437 25.86825195 28.66398437 25.86825195 28.671875 27.83203125 C28.68589355 29.596073 28.68589355 29.596073 28.70019531 31.39575195 C28.30607939 34.93172759 27.52010611 36.79999468 25.34375 39.59375 C20.35941711 41.2551943 15.16688439 40.81884154 9.94702148 40.83398438 C7.91673966 40.8436998 5.8874667 40.87474209 3.85742188 40.90625 C2.57544922 40.91140625 1.29347656 40.9165625 -0.02734375 40.921875 C-1.20224365 40.9312207 -2.37714355 40.94056641 -3.58764648 40.95019531 C-6.94642967 40.56004308 -8.29947237 39.97740837 -10.65625 37.59375 C-12.31310067 32.62319799 -11.95963389 27.45864453 -12.00634766 22.25195312 C-12.02290751 20.89989001 -12.05019924 19.54791446 -12.08837891 18.19628906 C-12.14332871 16.23816461 -12.161916 14.2791272 -12.1796875 12.3203125 C-12.19950684 11.15064941 -12.21932617 9.98098633 -12.23974609 8.77587891 C-10.96283381 1.81216565 -6.58790688 -0.04037157 0 0 Z M4.34375 16.59375 C4.34375 19.23375 4.34375 21.87375 4.34375 24.59375 C6.98375 24.59375 9.62375 24.59375 12.34375 24.59375 C12.34375 21.95375 12.34375 19.31375 12.34375 16.59375 C9.70375 16.59375 7.06375 16.59375 4.34375 16.59375 Z " fill="#B3404A" transform="translate(339.65625,327.40625)"/>
<path d="M0 0 C1.26972656 0.00257813 2.53945313 0.00515625 3.84765625 0.0078125 C5.16636719 0.03617187 6.48507812 0.06453125 7.84375 0.09375 C9.16246094 0.09117187 10.48117187 0.08859375 11.83984375 0.0859375 C22.77449158 0.19694915 22.77449158 0.19694915 27.34375 3.59375 C29.44189417 7.79003834 28.57063527 13.24409849 28.58398438 17.86010742 C28.59366423 19.88827939 28.62467532 21.91542642 28.65625 23.94335938 C28.66398437 25.86825195 28.66398437 25.86825195 28.671875 27.83203125 C28.68589355 29.596073 28.68589355 29.596073 28.70019531 31.39575195 C28.30607939 34.93172759 27.52010611 36.79999468 25.34375 39.59375 C20.35941711 41.2551943 15.16688439 40.81884154 9.94702148 40.83398438 C7.91673966 40.8436998 5.8874667 40.87474209 3.85742188 40.90625 C2.57544922 40.91140625 1.29347656 40.9165625 -0.02734375 40.921875 C-1.20224365 40.9312207 -2.37714355 40.94056641 -3.58764648 40.95019531 C-6.94642967 40.56004308 -8.29947237 39.97740837 -10.65625 37.59375 C-12.31310067 32.62319799 -11.95963389 27.45864453 -12.00634766 22.25195312 C-12.02290751 20.89989001 -12.05019924 19.54791446 -12.08837891 18.19628906 C-12.14332871 16.23816461 -12.161916 14.2791272 -12.1796875 12.3203125 C-12.19950684 11.15064941 -12.21932617 9.98098633 -12.23974609 8.77587891 C-10.96283381 1.81216565 -6.58790688 -0.04037157 0 0 Z M4.34375 16.59375 C4.34375 19.23375 4.34375 21.87375 4.34375 24.59375 C6.98375 24.59375 9.62375 24.59375 12.34375 24.59375 C12.34375 21.95375 12.34375 19.31375 12.34375 16.59375 C9.70375 16.59375 7.06375 16.59375 4.34375 16.59375 Z " fill="#B3404A" transform="translate(291.65625,327.40625)"/>
<path d="M0 0 C1.26972656 0.00257813 2.53945312 0.00515625 3.84765625 0.0078125 C5.16636719 0.03617187 6.48507813 0.06453125 7.84375 0.09375 C9.16246094 0.09117187 10.48117188 0.08859375 11.83984375 0.0859375 C22.77449158 0.19694915 22.77449158 0.19694915 27.34375 3.59375 C29.44189417 7.79003834 28.57063527 13.24409849 28.58398438 17.86010742 C28.59366423 19.88827939 28.62467532 21.91542642 28.65625 23.94335938 C28.66398437 25.86825195 28.66398437 25.86825195 28.671875 27.83203125 C28.68589355 29.596073 28.68589355 29.596073 28.70019531 31.39575195 C28.30607939 34.93172759 27.52010611 36.79999468 25.34375 39.59375 C20.35941711 41.2551943 15.16688439 40.81884154 9.94702148 40.83398438 C7.91673966 40.8436998 5.8874667 40.87474209 3.85742188 40.90625 C2.57544922 40.91140625 1.29347656 40.9165625 -0.02734375 40.921875 C-1.20224365 40.9312207 -2.37714355 40.94056641 -3.58764648 40.95019531 C-6.94642967 40.56004308 -8.29947237 39.97740837 -10.65625 37.59375 C-12.31310067 32.62319799 -11.95963389 27.45864453 -12.00634766 22.25195312 C-12.02290751 20.89989001 -12.05019924 19.54791446 -12.08837891 18.19628906 C-12.14332871 16.23816461 -12.161916 14.2791272 -12.1796875 12.3203125 C-12.19950684 11.15064941 -12.21932617 9.98098633 -12.23974609 8.77587891 C-10.96283381 1.81216565 -6.58790688 -0.04037157 0 0 Z M4.34375 16.59375 C4.34375 19.23375 4.34375 21.87375 4.34375 24.59375 C6.98375 24.59375 9.62375 24.59375 12.34375 24.59375 C12.34375 21.95375 12.34375 19.31375 12.34375 16.59375 C9.70375 16.59375 7.06375 16.59375 4.34375 16.59375 Z " fill="#B3404A" transform="translate(243.65625,327.40625)"/>
<path d="M0 0 C1.26972656 0.00257813 2.53945312 0.00515625 3.84765625 0.0078125 C5.16636719 0.03617187 6.48507813 0.06453125 7.84375 0.09375 C9.16246094 0.09117187 10.48117188 0.08859375 11.83984375 0.0859375 C22.77449158 0.19694915 22.77449158 0.19694915 27.34375 3.59375 C29.44189417 7.79003834 28.57063527 13.24409849 28.58398438 17.86010742 C28.59366423 19.88827939 28.62467532 21.91542642 28.65625 23.94335938 C28.66398437 25.86825195 28.66398437 25.86825195 28.671875 27.83203125 C28.68589355 29.596073 28.68589355 29.596073 28.70019531 31.39575195 C28.30607939 34.93172759 27.52010611 36.79999468 25.34375 39.59375 C20.35941711 41.2551943 15.16688439 40.81884154 9.94702148 40.83398438 C7.91673966 40.8436998 5.8874667 40.87474209 3.85742188 40.90625 C2.57544922 40.91140625 1.29347656 40.9165625 -0.02734375 40.921875 C-1.20224365 40.9312207 -2.37714355 40.94056641 -3.58764648 40.95019531 C-6.94642967 40.56004308 -8.29947237 39.97740837 -10.65625 37.59375 C-12.31310067 32.62319799 -11.95963389 27.45864453 -12.00634766 22.25195312 C-12.02290751 20.89989001 -12.05019924 19.54791446 -12.08837891 18.19628906 C-12.14332871 16.23816461 -12.161916 14.2791272 -12.1796875 12.3203125 C-12.19950684 11.15064941 -12.21932617 9.98098633 -12.23974609 8.77587891 C-10.96283381 1.81216565 -6.58790688 -0.04037157 0 0 Z M4.34375 16.59375 C4.34375 19.23375 4.34375 21.87375 4.34375 24.59375 C6.98375 24.59375 9.62375 24.59375 12.34375 24.59375 C12.34375 21.95375 12.34375 19.31375 12.34375 16.59375 C9.70375 16.59375 7.06375 16.59375 4.34375 16.59375 Z " fill="#B3404A" transform="translate(195.65625,327.40625)"/>
<path d="M0 0 C1.26972656 0.00257813 2.53945312 0.00515625 3.84765625 0.0078125 C5.16636719 0.03617187 6.48507813 0.06453125 7.84375 0.09375 C9.16246094 0.09117187 10.48117188 0.08859375 11.83984375 0.0859375 C22.77449158 0.19694915 22.77449158 0.19694915 27.34375 3.59375 C29.44189417 7.79003834 28.57063527 13.24409849 28.58398438 17.86010742 C28.59366423 19.88827939 28.62467532 21.91542642 28.65625 23.94335938 C28.66398437 25.86825195 28.66398437 25.86825195 28.671875 27.83203125 C28.68589355 29.596073 28.68589355 29.596073 28.70019531 31.39575195 C28.30607939 34.93172759 27.52010611 36.79999468 25.34375 39.59375 C20.35941711 41.2551943 15.16688439 40.81884154 9.94702148 40.83398438 C7.91673966 40.8436998 5.8874667 40.87474209 3.85742188 40.90625 C2.57544922 40.91140625 1.29347656 40.9165625 -0.02734375 40.921875 C-1.20224365 40.9312207 -2.37714355 40.94056641 -3.58764648 40.95019531 C-6.94642967 40.56004308 -8.29947237 39.97740837 -10.65625 37.59375 C-12.31310067 32.62319799 -11.95963389 27.45864453 -12.00634766 22.25195312 C-12.02290751 20.89989001 -12.05019924 19.54791446 -12.08837891 18.19628906 C-12.14332871 16.23816461 -12.161916 14.2791272 -12.1796875 12.3203125 C-12.19950684 11.15064941 -12.21932617 9.98098633 -12.23974609 8.77587891 C-10.96283381 1.81216565 -6.58790688 -0.04037157 0 0 Z M4.34375 16.59375 C4.34375 19.23375 4.34375 21.87375 4.34375 24.59375 C6.98375 24.59375 9.62375 24.59375 12.34375 24.59375 C12.34375 21.95375 12.34375 19.31375 12.34375 16.59375 C9.70375 16.59375 7.06375 16.59375 4.34375 16.59375 Z " fill="#B3404A" transform="translate(147.65625,327.40625)"/>
<path d="M0 0 C1.26972656 0.00257813 2.53945313 0.00515625 3.84765625 0.0078125 C5.16636719 0.03617187 6.48507812 0.06453125 7.84375 0.09375 C9.16246094 0.09117187 10.48117187 0.08859375 11.83984375 0.0859375 C22.77449158 0.19694915 22.77449158 0.19694915 27.34375 3.59375 C29.44189417 7.79003834 28.57063527 13.24409849 28.58398438 17.86010742 C28.59366423 19.88827939 28.62467532 21.91542642 28.65625 23.94335938 C28.66398437 25.86825195 28.66398437 25.86825195 28.671875 27.83203125 C28.68589355 29.596073 28.68589355 29.596073 28.70019531 31.39575195 C28.30607939 34.93172759 27.52010611 36.79999468 25.34375 39.59375 C20.35941711 41.2551943 15.16688439 40.81884154 9.94702148 40.83398438 C7.91673966 40.8436998 5.8874667 40.87474209 3.85742188 40.90625 C2.57544922 40.91140625 1.29347656 40.9165625 -0.02734375 40.921875 C-1.20224365 40.9312207 -2.37714355 40.94056641 -3.58764648 40.95019531 C-6.94642967 40.56004308 -8.29947237 39.97740837 -10.65625 37.59375 C-12.31310067 32.62319799 -11.95963389 27.45864453 -12.00634766 22.25195312 C-12.02290751 20.89989001 -12.05019924 19.54791446 -12.08837891 18.19628906 C-12.14332871 16.23816461 -12.161916 14.2791272 -12.1796875 12.3203125 C-12.19950684 11.15064941 -12.21932617 9.98098633 -12.23974609 8.77587891 C-10.96283381 1.81216565 -6.58790688 -0.04037157 0 0 Z M4.34375 16.59375 C4.34375 19.23375 4.34375 21.87375 4.34375 24.59375 C6.98375 24.59375 9.62375 24.59375 12.34375 24.59375 C12.34375 21.95375 12.34375 19.31375 12.34375 16.59375 C9.70375 16.59375 7.06375 16.59375 4.34375 16.59375 Z " fill="#B3404A" transform="translate(387.65625,279.40625)"/>
<path d="M0 0 C1.26972656 0.00257813 2.53945313 0.00515625 3.84765625 0.0078125 C5.16636719 0.03617187 6.48507812 0.06453125 7.84375 0.09375 C9.16246094 0.09117187 10.48117187 0.08859375 11.83984375 0.0859375 C22.77449158 0.19694915 22.77449158 0.19694915 27.34375 3.59375 C29.44189417 7.79003834 28.57063527 13.24409849 28.58398438 17.86010742 C28.59366423 19.88827939 28.62467532 21.91542642 28.65625 23.94335938 C28.66398437 25.86825195 28.66398437 25.86825195 28.671875 27.83203125 C28.68589355 29.596073 28.68589355 29.596073 28.70019531 31.39575195 C28.30607939 34.93172759 27.52010611 36.79999468 25.34375 39.59375 C20.35941711 41.2551943 15.16688439 40.81884154 9.94702148 40.83398438 C7.91673966 40.8436998 5.8874667 40.87474209 3.85742188 40.90625 C2.57544922 40.91140625 1.29347656 40.9165625 -0.02734375 40.921875 C-1.20224365 40.9312207 -2.37714355 40.94056641 -3.58764648 40.95019531 C-6.94642967 40.56004308 -8.29947237 39.97740837 -10.65625 37.59375 C-12.31310067 32.62319799 -11.95963389 27.45864453 -12.00634766 22.25195312 C-12.02290751 20.89989001 -12.05019924 19.54791446 -12.08837891 18.19628906 C-12.14332871 16.23816461 -12.161916 14.2791272 -12.1796875 12.3203125 C-12.19950684 11.15064941 -12.21932617 9.98098633 -12.23974609 8.77587891 C-10.96283381 1.81216565 -6.58790688 -0.04037157 0 0 Z M4.34375 16.59375 C4.34375 19.23375 4.34375 21.87375 4.34375 24.59375 C6.98375 24.59375 9.62375 24.59375 12.34375 24.59375 C12.34375 21.95375 12.34375 19.31375 12.34375 16.59375 C9.70375 16.59375 7.06375 16.59375 4.34375 16.59375 Z " fill="#B3404A" transform="translate(339.65625,279.40625)"/>
<path d="M0 0 C1.26972656 0.00257813 2.53945313 0.00515625 3.84765625 0.0078125 C5.16636719 0.03617187 6.48507812 0.06453125 7.84375 0.09375 C9.16246094 0.09117187 10.48117187 0.08859375 11.83984375 0.0859375 C22.77449158 0.19694915 22.77449158 0.19694915 27.34375 3.59375 C29.44189417 7.79003834 28.57063527 13.24409849 28.58398438 17.86010742 C28.59366423 19.88827939 28.62467532 21.91542642 28.65625 23.94335938 C28.66398437 25.86825195 28.66398437 25.86825195 28.671875 27.83203125 C28.68589355 29.596073 28.68589355 29.596073 28.70019531 31.39575195 C28.30607939 34.93172759 27.52010611 36.79999468 25.34375 39.59375 C20.35941711 41.2551943 15.16688439 40.81884154 9.94702148 40.83398438 C7.91673966 40.8436998 5.8874667 40.87474209 3.85742188 40.90625 C2.57544922 40.91140625 1.29347656 40.9165625 -0.02734375 40.921875 C-1.20224365 40.9312207 -2.37714355 40.94056641 -3.58764648 40.95019531 C-6.94642967 40.56004308 -8.29947237 39.97740837 -10.65625 37.59375 C-12.31310067 32.62319799 -11.95963389 27.45864453 -12.00634766 22.25195312 C-12.02290751 20.89989001 -12.05019924 19.54791446 -12.08837891 18.19628906 C-12.14332871 16.23816461 -12.161916 14.2791272 -12.1796875 12.3203125 C-12.19950684 11.15064941 -12.21932617 9.98098633 -12.23974609 8.77587891 C-10.96283381 1.81216565 -6.58790688 -0.04037157 0 0 Z M4.34375 16.59375 C4.34375 19.23375 4.34375 21.87375 4.34375 24.59375 C6.98375 24.59375 9.62375 24.59375 12.34375 24.59375 C12.34375 21.95375 12.34375 19.31375 12.34375 16.59375 C9.70375 16.59375 7.06375 16.59375 4.34375 16.59375 Z " fill="#B3404A" transform="translate(291.65625,279.40625)"/>
<path d="M0 0 C1.26972656 0.00257813 2.53945312 0.00515625 3.84765625 0.0078125 C5.16636719 0.03617187 6.48507813 0.06453125 7.84375 0.09375 C9.16246094 0.09117187 10.48117188 0.08859375 11.83984375 0.0859375 C22.77449158 0.19694915 22.77449158 0.19694915 27.34375 3.59375 C29.44189417 7.79003834 28.57063527 13.24409849 28.58398438 17.86010742 C28.59366423 19.88827939 28.62467532 21.91542642 28.65625 23.94335938 C28.66398437 25.86825195 28.66398437 25.86825195 28.671875 27.83203125 C28.68589355 29.596073 28.68589355 29.596073 28.70019531 31.39575195 C28.30607939 34.93172759 27.52010611 36.79999468 25.34375 39.59375 C20.35941711 41.2551943 15.16688439 40.81884154 9.94702148 40.83398438 C7.91673966 40.8436998 5.8874667 40.87474209 3.85742188 40.90625 C2.57544922 40.91140625 1.29347656 40.9165625 -0.02734375 40.921875 C-1.20224365 40.9312207 -2.37714355 40.94056641 -3.58764648 40.95019531 C-6.94642967 40.56004308 -8.29947237 39.97740837 -10.65625 37.59375 C-12.31310067 32.62319799 -11.95963389 27.45864453 -12.00634766 22.25195312 C-12.02290751 20.89989001 -12.05019924 19.54791446 -12.08837891 18.19628906 C-12.14332871 16.23816461 -12.161916 14.2791272 -12.1796875 12.3203125 C-12.19950684 11.15064941 -12.21932617 9.98098633 -12.23974609 8.77587891 C-10.96283381 1.81216565 -6.58790688 -0.04037157 0 0 Z M4.34375 16.59375 C4.34375 19.23375 4.34375 21.87375 4.34375 24.59375 C6.98375 24.59375 9.62375 24.59375 12.34375 24.59375 C12.34375 21.95375 12.34375 19.31375 12.34375 16.59375 C9.70375 16.59375 7.06375 16.59375 4.34375 16.59375 Z " fill="#B3404A" transform="translate(243.65625,279.40625)"/>
<path d="M0 0 C1.26972656 0.00257813 2.53945312 0.00515625 3.84765625 0.0078125 C5.16636719 0.03617187 6.48507813 0.06453125 7.84375 0.09375 C9.16246094 0.09117187 10.48117188 0.08859375 11.83984375 0.0859375 C22.77449158 0.19694915 22.77449158 0.19694915 27.34375 3.59375 C29.44189417 7.79003834 28.57063527 13.24409849 28.58398438 17.86010742 C28.59366423 19.88827939 28.62467532 21.91542642 28.65625 23.94335938 C28.66398437 25.86825195 28.66398437 25.86825195 28.671875 27.83203125 C28.68589355 29.596073 28.68589355 29.596073 28.70019531 31.39575195 C28.30607939 34.93172759 27.52010611 36.79999468 25.34375 39.59375 C20.35941711 41.2551943 15.16688439 40.81884154 9.94702148 40.83398438 C7.91673966 40.8436998 5.8874667 40.87474209 3.85742188 40.90625 C2.57544922 40.91140625 1.29347656 40.9165625 -0.02734375 40.921875 C-1.20224365 40.9312207 -2.37714355 40.94056641 -3.58764648 40.95019531 C-6.94642967 40.56004308 -8.29947237 39.97740837 -10.65625 37.59375 C-12.31310067 32.62319799 -11.95963389 27.45864453 -12.00634766 22.25195312 C-12.02290751 20.89989001 -12.05019924 19.54791446 -12.08837891 18.19628906 C-12.14332871 16.23816461 -12.161916 14.2791272 -12.1796875 12.3203125 C-12.19950684 11.15064941 -12.21932617 9.98098633 -12.23974609 8.77587891 C-10.96283381 1.81216565 -6.58790688 -0.04037157 0 0 Z M4.34375 16.59375 C4.34375 19.23375 4.34375 21.87375 4.34375 24.59375 C6.98375 24.59375 9.62375 24.59375 12.34375 24.59375 C12.34375 21.95375 12.34375 19.31375 12.34375 16.59375 C9.70375 16.59375 7.06375 16.59375 4.34375 16.59375 Z " fill="#B3404A" transform="translate(195.65625,279.40625)"/>
<path d="M0 0 C1.26972656 0.00257813 2.53945312 0.00515625 3.84765625 0.0078125 C5.16636719 0.03617187 6.48507813 0.06453125 7.84375 0.09375 C9.16246094 0.09117187 10.48117188 0.08859375 11.83984375 0.0859375 C22.77449158 0.19694915 22.77449158 0.19694915 27.34375 3.59375 C29.44189417 7.79003834 28.57063527 13.24409849 28.58398438 17.86010742 C28.59366423 19.88827939 28.62467532 21.91542642 28.65625 23.94335938 C28.66398437 25.86825195 28.66398437 25.86825195 28.671875 27.83203125 C28.68589355 29.596073 28.68589355 29.596073 28.70019531 31.39575195 C28.30607939 34.93172759 27.52010611 36.79999468 25.34375 39.59375 C20.35941711 41.2551943 15.16688439 40.81884154 9.94702148 40.83398438 C7.91673966 40.8436998 5.8874667 40.87474209 3.85742188 40.90625 C2.57544922 40.91140625 1.29347656 40.9165625 -0.02734375 40.921875 C-1.20224365 40.9312207 -2.37714355 40.94056641 -3.58764648 40.95019531 C-6.94642967 40.56004308 -8.29947237 39.97740837 -10.65625 37.59375 C-12.31310067 32.62319799 -11.95963389 27.45864453 -12.00634766 22.25195312 C-12.02290751 20.89989001 -12.05019924 19.54791446 -12.08837891 18.19628906 C-12.14332871 16.23816461 -12.161916 14.2791272 -12.1796875 12.3203125 C-12.19950684 11.15064941 -12.21932617 9.98098633 -12.23974609 8.77587891 C-10.96283381 1.81216565 -6.58790688 -0.04037157 0 0 Z M4.34375 16.59375 C4.34375 19.23375 4.34375 21.87375 4.34375 24.59375 C6.98375 24.59375 9.62375 24.59375 12.34375 24.59375 C12.34375 21.95375 12.34375 19.31375 12.34375 16.59375 C9.70375 16.59375 7.06375 16.59375 4.34375 16.59375 Z " fill="#B3404A" transform="translate(147.65625,279.40625)"/>
<path d="M0 0 C1.26972656 0.00257813 2.53945312 0.00515625 3.84765625 0.0078125 C5.16636719 0.03617187 6.48507813 0.06453125 7.84375 0.09375 C9.16246094 0.09117187 10.48117188 0.08859375 11.83984375 0.0859375 C22.77449158 0.19694915 22.77449158 0.19694915 27.34375 3.59375 C29.44189417 7.79003834 28.57063527 13.24409849 28.58398438 17.86010742 C28.59366423 19.88827939 28.62467532 21.91542642 28.65625 23.94335938 C28.66398437 25.86825195 28.66398437 25.86825195 28.671875 27.83203125 C28.68589355 29.596073 28.68589355 29.596073 28.70019531 31.39575195 C28.30607939 34.93172759 27.52010611 36.79999468 25.34375 39.59375 C20.35941711 41.2551943 15.16688439 40.81884154 9.94702148 40.83398438 C7.91673966 40.8436998 5.8874667 40.87474209 3.85742188 40.90625 C2.57544922 40.91140625 1.29347656 40.9165625 -0.02734375 40.921875 C-1.20224365 40.9312207 -2.37714355 40.94056641 -3.58764648 40.95019531 C-6.94642967 40.56004308 -8.29947237 39.97740837 -10.65625 37.59375 C-12.31310067 32.62319799 -11.95963389 27.45864453 -12.00634766 22.25195312 C-12.02290751 20.89989001 -12.05019924 19.54791446 -12.08837891 18.19628906 C-12.14332871 16.23816461 -12.161916 14.2791272 -12.1796875 12.3203125 C-12.19950684 11.15064941 -12.21932617 9.98098633 -12.23974609 8.77587891 C-10.96283381 1.81216565 -6.58790688 -0.04037157 0 0 Z M4.34375 16.59375 C4.34375 19.23375 4.34375 21.87375 4.34375 24.59375 C6.98375 24.59375 9.62375 24.59375 12.34375 24.59375 C12.34375 21.95375 12.34375 19.31375 12.34375 16.59375 C9.70375 16.59375 7.06375 16.59375 4.34375 16.59375 Z " fill="#B3404A" transform="translate(99.65625,279.40625)"/>
<path d="M0 0 C1.26972656 0.00257813 2.53945313 0.00515625 3.84765625 0.0078125 C5.16636719 0.03617187 6.48507813 0.06453125 7.84375 0.09375 C9.16246094 0.09117187 10.48117188 0.08859375 11.83984375 0.0859375 C22.77449158 0.19694915 22.77449158 0.19694915 27.34375 3.59375 C29.44189417 7.79003834 28.57063527 13.24409849 28.58398438 17.86010742 C28.59366423 19.88827939 28.62467532 21.91542642 28.65625 23.94335938 C28.66398437 25.86825195 28.66398437 25.86825195 28.671875 27.83203125 C28.68589355 29.596073 28.68589355 29.596073 28.70019531 31.39575195 C28.30607939 34.93172759 27.52010611 36.79999468 25.34375 39.59375 C20.35941711 41.2551943 15.16688439 40.81884154 9.94702148 40.83398438 C7.91673966 40.8436998 5.8874667 40.87474209 3.85742188 40.90625 C2.57544922 40.91140625 1.29347656 40.9165625 -0.02734375 40.921875 C-1.20224365 40.9312207 -2.37714355 40.94056641 -3.58764648 40.95019531 C-6.94642967 40.56004308 -8.29947237 39.97740837 -10.65625 37.59375 C-12.31310067 32.62319799 -11.95963389 27.45864453 -12.00634766 22.25195312 C-12.02290751 20.89989001 -12.05019924 19.54791446 -12.08837891 18.19628906 C-12.14332871 16.23816461 -12.161916 14.2791272 -12.1796875 12.3203125 C-12.19950684 11.15064941 -12.21932617 9.98098633 -12.23974609 8.77587891 C-10.96283381 1.81216565 -6.58790688 -0.04037157 0 0 Z M4.34375 16.59375 C4.34375 19.23375 4.34375 21.87375 4.34375 24.59375 C6.98375 24.59375 9.62375 24.59375 12.34375 24.59375 C12.34375 21.95375 12.34375 19.31375 12.34375 16.59375 C9.70375 16.59375 7.06375 16.59375 4.34375 16.59375 Z " fill="#B3404A" transform="translate(51.65625,279.40625)"/>
<path d="M0 0 C1.26972656 0.00257813 2.53945313 0.00515625 3.84765625 0.0078125 C5.16636719 0.03617188 6.48507812 0.06453125 7.84375 0.09375 C9.16246094 0.09117187 10.48117187 0.08859375 11.83984375 0.0859375 C22.77449158 0.19694915 22.77449158 0.19694915 27.34375 3.59375 C29.44189417 7.79003834 28.57063527 13.24409849 28.58398438 17.86010742 C28.59366423 19.88827939 28.62467532 21.91542642 28.65625 23.94335938 C28.66398437 25.86825195 28.66398437 25.86825195 28.671875 27.83203125 C28.68589355 29.596073 28.68589355 29.596073 28.70019531 31.39575195 C28.30607939 34.93172759 27.52010611 36.79999468 25.34375 39.59375 C20.35941711 41.2551943 15.16688439 40.81884154 9.94702148 40.83398438 C7.91673966 40.8436998 5.8874667 40.87474209 3.85742188 40.90625 C2.57544922 40.91140625 1.29347656 40.9165625 -0.02734375 40.921875 C-1.20224365 40.9312207 -2.37714355 40.94056641 -3.58764648 40.95019531 C-6.94642967 40.56004308 -8.29947237 39.97740837 -10.65625 37.59375 C-12.31310067 32.62319799 -11.95963389 27.45864453 -12.00634766 22.25195312 C-12.02290751 20.89989001 -12.05019924 19.54791446 -12.08837891 18.19628906 C-12.14332871 16.23816461 -12.161916 14.2791272 -12.1796875 12.3203125 C-12.19950684 11.15064941 -12.21932617 9.98098633 -12.23974609 8.77587891 C-10.96283381 1.81216565 -6.58790688 -0.04037157 0 0 Z M4.34375 16.59375 C4.34375 19.23375 4.34375 21.87375 4.34375 24.59375 C6.98375 24.59375 9.62375 24.59375 12.34375 24.59375 C12.34375 21.95375 12.34375 19.31375 12.34375 16.59375 C9.70375 16.59375 7.06375 16.59375 4.34375 16.59375 Z " fill="#B3404A" transform="translate(387.65625,231.40625)"/>
<path d="M0 0 C1.26972656 0.00257813 2.53945313 0.00515625 3.84765625 0.0078125 C5.16636719 0.03617188 6.48507812 0.06453125 7.84375 0.09375 C9.16246094 0.09117187 10.48117187 0.08859375 11.83984375 0.0859375 C22.77449158 0.19694915 22.77449158 0.19694915 27.34375 3.59375 C29.44189417 7.79003834 28.57063527 13.24409849 28.58398438 17.86010742 C28.59366423 19.88827939 28.62467532 21.91542642 28.65625 23.94335938 C28.66398437 25.86825195 28.66398437 25.86825195 28.671875 27.83203125 C28.68589355 29.596073 28.68589355 29.596073 28.70019531 31.39575195 C28.30607939 34.93172759 27.52010611 36.79999468 25.34375 39.59375 C20.35941711 41.2551943 15.16688439 40.81884154 9.94702148 40.83398438 C7.91673966 40.8436998 5.8874667 40.87474209 3.85742188 40.90625 C2.57544922 40.91140625 1.29347656 40.9165625 -0.02734375 40.921875 C-1.20224365 40.9312207 -2.37714355 40.94056641 -3.58764648 40.95019531 C-6.94642967 40.56004308 -8.29947237 39.97740837 -10.65625 37.59375 C-12.31310067 32.62319799 -11.95963389 27.45864453 -12.00634766 22.25195312 C-12.02290751 20.89989001 -12.05019924 19.54791446 -12.08837891 18.19628906 C-12.14332871 16.23816461 -12.161916 14.2791272 -12.1796875 12.3203125 C-12.19950684 11.15064941 -12.21932617 9.98098633 -12.23974609 8.77587891 C-10.96283381 1.81216565 -6.58790688 -0.04037157 0 0 Z M4.34375 16.59375 C4.34375 19.23375 4.34375 21.87375 4.34375 24.59375 C6.98375 24.59375 9.62375 24.59375 12.34375 24.59375 C12.34375 21.95375 12.34375 19.31375 12.34375 16.59375 C9.70375 16.59375 7.06375 16.59375 4.34375 16.59375 Z " fill="#B3404A" transform="translate(339.65625,231.40625)"/>
<path d="M0 0 C1.26972656 0.00257813 2.53945313 0.00515625 3.84765625 0.0078125 C5.16636719 0.03617188 6.48507812 0.06453125 7.84375 0.09375 C9.16246094 0.09117187 10.48117187 0.08859375 11.83984375 0.0859375 C22.77449158 0.19694915 22.77449158 0.19694915 27.34375 3.59375 C29.44189417 7.79003834 28.57063527 13.24409849 28.58398438 17.86010742 C28.59366423 19.88827939 28.62467532 21.91542642 28.65625 23.94335938 C28.66398437 25.86825195 28.66398437 25.86825195 28.671875 27.83203125 C28.68589355 29.596073 28.68589355 29.596073 28.70019531 31.39575195 C28.30607939 34.93172759 27.52010611 36.79999468 25.34375 39.59375 C20.35941711 41.2551943 15.16688439 40.81884154 9.94702148 40.83398438 C7.91673966 40.8436998 5.8874667 40.87474209 3.85742188 40.90625 C2.57544922 40.91140625 1.29347656 40.9165625 -0.02734375 40.921875 C-1.20224365 40.9312207 -2.37714355 40.94056641 -3.58764648 40.95019531 C-6.94642967 40.56004308 -8.29947237 39.97740837 -10.65625 37.59375 C-12.31310067 32.62319799 -11.95963389 27.45864453 -12.00634766 22.25195312 C-12.02290751 20.89989001 -12.05019924 19.54791446 -12.08837891 18.19628906 C-12.14332871 16.23816461 -12.161916 14.2791272 -12.1796875 12.3203125 C-12.19950684 11.15064941 -12.21932617 9.98098633 -12.23974609 8.77587891 C-10.96283381 1.81216565 -6.58790688 -0.04037157 0 0 Z M4.34375 16.59375 C4.34375 19.23375 4.34375 21.87375 4.34375 24.59375 C6.98375 24.59375 9.62375 24.59375 12.34375 24.59375 C12.34375 21.95375 12.34375 19.31375 12.34375 16.59375 C9.70375 16.59375 7.06375 16.59375 4.34375 16.59375 Z " fill="#B3404A" transform="translate(291.65625,231.40625)"/>
<path d="M0 0 C1.26972656 0.00257813 2.53945312 0.00515625 3.84765625 0.0078125 C5.16636719 0.03617188 6.48507813 0.06453125 7.84375 0.09375 C9.16246094 0.09117187 10.48117188 0.08859375 11.83984375 0.0859375 C22.77449158 0.19694915 22.77449158 0.19694915 27.34375 3.59375 C29.44189417 7.79003834 28.57063527 13.24409849 28.58398438 17.86010742 C28.59366423 19.88827939 28.62467532 21.91542642 28.65625 23.94335938 C28.66398437 25.86825195 28.66398437 25.86825195 28.671875 27.83203125 C28.68589355 29.596073 28.68589355 29.596073 28.70019531 31.39575195 C28.30607939 34.93172759 27.52010611 36.79999468 25.34375 39.59375 C20.35941711 41.2551943 15.16688439 40.81884154 9.94702148 40.83398438 C7.91673966 40.8436998 5.8874667 40.87474209 3.85742188 40.90625 C2.57544922 40.91140625 1.29347656 40.9165625 -0.02734375 40.921875 C-1.20224365 40.9312207 -2.37714355 40.94056641 -3.58764648 40.95019531 C-6.94642967 40.56004308 -8.29947237 39.97740837 -10.65625 37.59375 C-12.31310067 32.62319799 -11.95963389 27.45864453 -12.00634766 22.25195312 C-12.02290751 20.89989001 -12.05019924 19.54791446 -12.08837891 18.19628906 C-12.14332871 16.23816461 -12.161916 14.2791272 -12.1796875 12.3203125 C-12.19950684 11.15064941 -12.21932617 9.98098633 -12.23974609 8.77587891 C-10.96283381 1.81216565 -6.58790688 -0.04037157 0 0 Z M4.34375 16.59375 C4.34375 19.23375 4.34375 21.87375 4.34375 24.59375 C6.98375 24.59375 9.62375 24.59375 12.34375 24.59375 C12.34375 21.95375 12.34375 19.31375 12.34375 16.59375 C9.70375 16.59375 7.06375 16.59375 4.34375 16.59375 Z " fill="#B3404A" transform="translate(243.65625,231.40625)"/>
<path d="M0 0 C1.26972656 0.00257813 2.53945312 0.00515625 3.84765625 0.0078125 C5.16636719 0.03617188 6.48507813 0.06453125 7.84375 0.09375 C9.16246094 0.09117187 10.48117188 0.08859375 11.83984375 0.0859375 C22.77449158 0.19694915 22.77449158 0.19694915 27.34375 3.59375 C29.44189417 7.79003834 28.57063527 13.24409849 28.58398438 17.86010742 C28.59366423 19.88827939 28.62467532 21.91542642 28.65625 23.94335938 C28.66398437 25.86825195 28.66398437 25.86825195 28.671875 27.83203125 C28.68589355 29.596073 28.68589355 29.596073 28.70019531 31.39575195 C28.30607939 34.93172759 27.52010611 36.79999468 25.34375 39.59375 C20.35941711 41.2551943 15.16688439 40.81884154 9.94702148 40.83398438 C7.91673966 40.8436998 5.8874667 40.87474209 3.85742188 40.90625 C2.57544922 40.91140625 1.29347656 40.9165625 -0.02734375 40.921875 C-1.20224365 40.9312207 -2.37714355 40.94056641 -3.58764648 40.95019531 C-6.94642967 40.56004308 -8.29947237 39.97740837 -10.65625 37.59375 C-12.31310067 32.62319799 -11.95963389 27.45864453 -12.00634766 22.25195312 C-12.02290751 20.89989001 -12.05019924 19.54791446 -12.08837891 18.19628906 C-12.14332871 16.23816461 -12.161916 14.2791272 -12.1796875 12.3203125 C-12.19950684 11.15064941 -12.21932617 9.98098633 -12.23974609 8.77587891 C-10.96283381 1.81216565 -6.58790688 -0.04037157 0 0 Z M4.34375 16.59375 C4.34375 19.23375 4.34375 21.87375 4.34375 24.59375 C6.98375 24.59375 9.62375 24.59375 12.34375 24.59375 C12.34375 21.95375 12.34375 19.31375 12.34375 16.59375 C9.70375 16.59375 7.06375 16.59375 4.34375 16.59375 Z " fill="#B3404A" transform="translate(195.65625,231.40625)"/>
<path d="M0 0 C1.26972656 0.00257813 2.53945312 0.00515625 3.84765625 0.0078125 C5.16636719 0.03617188 6.48507813 0.06453125 7.84375 0.09375 C9.16246094 0.09117187 10.48117188 0.08859375 11.83984375 0.0859375 C22.77449158 0.19694915 22.77449158 0.19694915 27.34375 3.59375 C29.44189417 7.79003834 28.57063527 13.24409849 28.58398438 17.86010742 C28.59366423 19.88827939 28.62467532 21.91542642 28.65625 23.94335938 C28.66398437 25.86825195 28.66398437 25.86825195 28.671875 27.83203125 C28.68589355 29.596073 28.68589355 29.596073 28.70019531 31.39575195 C28.30607939 34.93172759 27.52010611 36.79999468 25.34375 39.59375 C20.35941711 41.2551943 15.16688439 40.81884154 9.94702148 40.83398438 C7.91673966 40.8436998 5.8874667 40.87474209 3.85742188 40.90625 C2.57544922 40.91140625 1.29347656 40.9165625 -0.02734375 40.921875 C-1.20224365 40.9312207 -2.37714355 40.94056641 -3.58764648 40.95019531 C-6.94642967 40.56004308 -8.29947237 39.97740837 -10.65625 37.59375 C-12.31310067 32.62319799 -11.95963389 27.45864453 -12.00634766 22.25195312 C-12.02290751 20.89989001 -12.05019924 19.54791446 -12.08837891 18.19628906 C-12.14332871 16.23816461 -12.161916 14.2791272 -12.1796875 12.3203125 C-12.19950684 11.15064941 -12.21932617 9.98098633 -12.23974609 8.77587891 C-10.96283381 1.81216565 -6.58790688 -0.04037157 0 0 Z M4.34375 16.59375 C4.34375 19.23375 4.34375 21.87375 4.34375 24.59375 C6.98375 24.59375 9.62375 24.59375 12.34375 24.59375 C12.34375 21.95375 12.34375 19.31375 12.34375 16.59375 C9.70375 16.59375 7.06375 16.59375 4.34375 16.59375 Z " fill="#B3404A" transform="translate(147.65625,231.40625)"/>
<path d="M0 0 C1.26972656 0.00257813 2.53945312 0.00515625 3.84765625 0.0078125 C5.16636719 0.03617188 6.48507813 0.06453125 7.84375 0.09375 C9.16246094 0.09117187 10.48117188 0.08859375 11.83984375 0.0859375 C22.77449158 0.19694915 22.77449158 0.19694915 27.34375 3.59375 C29.44189417 7.79003834 28.57063527 13.24409849 28.58398438 17.86010742 C28.59366423 19.88827939 28.62467532 21.91542642 28.65625 23.94335938 C28.66398437 25.86825195 28.66398437 25.86825195 28.671875 27.83203125 C28.68589355 29.596073 28.68589355 29.596073 28.70019531 31.39575195 C28.30607939 34.93172759 27.52010611 36.79999468 25.34375 39.59375 C20.35941711 41.2551943 15.16688439 40.81884154 9.94702148 40.83398438 C7.91673966 40.8436998 5.8874667 40.87474209 3.85742188 40.90625 C2.57544922 40.91140625 1.29347656 40.9165625 -0.02734375 40.921875 C-1.20224365 40.9312207 -2.37714355 40.94056641 -3.58764648 40.95019531 C-6.94642967 40.56004308 -8.29947237 39.97740837 -10.65625 37.59375 C-12.31310067 32.62319799 -11.95963389 27.45864453 -12.00634766 22.25195312 C-12.02290751 20.89989001 -12.05019924 19.54791446 -12.08837891 18.19628906 C-12.14332871 16.23816461 -12.161916 14.2791272 -12.1796875 12.3203125 C-12.19950684 11.15064941 -12.21932617 9.98098633 -12.23974609 8.77587891 C-10.96283381 1.81216565 -6.58790688 -0.04037157 0 0 Z M4.34375 16.59375 C4.34375 19.23375 4.34375 21.87375 4.34375 24.59375 C6.98375 24.59375 9.62375 24.59375 12.34375 24.59375 C12.34375 21.95375 12.34375 19.31375 12.34375 16.59375 C9.70375 16.59375 7.06375 16.59375 4.34375 16.59375 Z " fill="#B3404A" transform="translate(99.65625,231.40625)"/>
<path d="M0 0 C1.26972656 0.00257813 2.53945313 0.00515625 3.84765625 0.0078125 C5.16636719 0.03617188 6.48507813 0.06453125 7.84375 0.09375 C9.16246094 0.09117187 10.48117188 0.08859375 11.83984375 0.0859375 C22.77449158 0.19694915 22.77449158 0.19694915 27.34375 3.59375 C29.44189417 7.79003834 28.57063527 13.24409849 28.58398438 17.86010742 C28.59366423 19.88827939 28.62467532 21.91542642 28.65625 23.94335938 C28.66398437 25.86825195 28.66398437 25.86825195 28.671875 27.83203125 C28.68589355 29.596073 28.68589355 29.596073 28.70019531 31.39575195 C28.30607939 34.93172759 27.52010611 36.79999468 25.34375 39.59375 C20.35941711 41.2551943 15.16688439 40.81884154 9.94702148 40.83398438 C7.91673966 40.8436998 5.8874667 40.87474209 3.85742188 40.90625 C2.57544922 40.91140625 1.29347656 40.9165625 -0.02734375 40.921875 C-1.20224365 40.9312207 -2.37714355 40.94056641 -3.58764648 40.95019531 C-6.94642967 40.56004308 -8.29947237 39.97740837 -10.65625 37.59375 C-12.31310067 32.62319799 -11.95963389 27.45864453 -12.00634766 22.25195312 C-12.02290751 20.89989001 -12.05019924 19.54791446 -12.08837891 18.19628906 C-12.14332871 16.23816461 -12.161916 14.2791272 -12.1796875 12.3203125 C-12.19950684 11.15064941 -12.21932617 9.98098633 -12.23974609 8.77587891 C-10.96283381 1.81216565 -6.58790688 -0.04037157 0 0 Z M4.34375 16.59375 C4.34375 19.23375 4.34375 21.87375 4.34375 24.59375 C6.98375 24.59375 9.62375 24.59375 12.34375 24.59375 C12.34375 21.95375 12.34375 19.31375 12.34375 16.59375 C9.70375 16.59375 7.06375 16.59375 4.34375 16.59375 Z " fill="#B3404A" transform="translate(51.65625,231.40625)"/>
</svg>
